<?xml version="1.0" encoding="UTF-8"?>
<svg xmlns="http://www.w3.org/2000/svg" viewBox="0 0 1500 420" role="img" aria-labelledby="title desc">
  <title id="title">Cyber-crow defensive operations illustration</title>
  <desc id="desc">Conceptual defensive story: suspicious packet approaches enterprise core, crow scans, detection activates, packet redirected to quarantine. Not a live SOC or employer network.</desc>
  <defs><style><![CDATA[
    .t{font-family:IBM Plex Mono,Consolas,monospace;font-size:18px;fill:#FFFFFF;font-weight:700}
    .n{font-family:IBM Plex Mono,Consolas,monospace;font-size:12px;fill:#94A3B8}
    .l{font-family:IBM Plex Mono,Consolas,monospace;font-size:13px;fill:#CBD5E1}
    
      @media (prefers-reduced-motion: no-preference) {
        .packet { animation: move 9s ease-in-out infinite; }
        .beacon { animation: pulse 3.2s ease-in-out infinite; }
        .float { animation: float 7s ease-in-out infinite; }
      }
      @media (prefers-reduced-motion: reduce) {
        .packet,.beacon,.float { animation: none !important; }
      }
      @keyframes move {
        0%{transform:translate(0,0)}
        40%{transform:translate(240px,-18px)}
        65%{transform:translate(400px,70px)}
        100%{transform:translate(400px,70px)}
      }
      @keyframes pulse { 0%,100%{opacity:.5} 50%{opacity:1} }
      @keyframes float { 0%,100%{transform:translateY(0)} 50%{transform:translateY(-10px)} }

  ]]></style></defs>
  <rect width="1500" height="420" rx="18" fill="#020617" stroke="#1E293B"/>
  <text class="t" x="40" y="42">Conceptual Defensive Operations — Portfolio Illustration</text>
  <text class="n" x="40" y="66">Not a live SOC, Tekfen, or Saudi Aramco network diagram</text>
  <g stroke="#1E293B" stroke-width="1" opacity="0.6">
    <path d="M80 120 H560 M80 180 H540 M80 240 H520"/>
  </g>
  <g transform="translate(980,230)">
    <polygon points="0,-75 85,-38 85,48 0,85 -85,48 -85,-38" fill="#0B1224" stroke="#22D3EE" stroke-width="3"/>
    <text class="l" x="0" y="10" text-anchor="middle" fill="#FFFFFF" font-size="14">SECURE CORE</text>
  </g>
  <rect x="1180" y="285" width="190" height="72" rx="10" fill="#0B1224" stroke="#F59E0B" stroke-width="2"/>
  <text class="l" x="1275" y="327" text-anchor="middle" fill="#F59E0B">QUARANTINE</text>
  <g class="float" transform="translate(420,175)">
    <path d="M-80,35 C-45,-25 25,-48 80,-8 C92,28 45,58 -15,62 C-45,62 -80,45 -80,35 Z" fill="#0B1224" stroke="#2563EB" stroke-width="3"/>
    <circle cx="30" cy="-18" r="6" fill="#22D3EE" class="beacon"/>
    <path d="M80,-8 L120,2 L82,14" fill="none" stroke="#22D3EE" stroke-width="2.4"/>
  </g>
  <path d="M120 245 C280 205, 520 200, 780 235" fill="none" stroke="#475569" stroke-width="2" stroke-dasharray="7 7"/>
  <path d="M900 255 C1030 275, 1110 305, 1185 318" fill="none" stroke="#F59E0B" stroke-width="2" stroke-dasharray="5 5"/>
  <g class="packet">
    <rect x="110" y="230" width="30" height="20" rx="3" fill="#F87171"/>
    <text x="125" y="244" text-anchor="middle" font-size="10" fill="#020617" font-family="Consolas,monospace">?</text>
  </g>
  <circle class="beacon" cx="640" cy="168" r="9" fill="#22D3EE"/>
  <text class="l" x="660" y="173">DETECTION</text>
  <text class="n" x="120" y="392">Suspicious packet scanned by crow node and redirected away from the protected core.</text>
</svg>
