<?xml version="1.0" encoding="UTF-8"?>
<svg xmlns="http://www.w3.org/2000/svg" viewBox="0 0 1280 378" role="img" aria-labelledby="title desc">
  <title id="title">Portfolio development telemetry</title>
  <desc id="desc">Progress values represent project or learning completion, not competency ratings. Updated 2026-07-15. Strongest six tracks shown.</desc>
  <rect width="1280" height="378" rx="16" fill="#020617" stroke="#1E293B"/>
  <text x="48" y="40" font-family="IBM Plex Mono,Consolas,monospace" font-size="20" fill="#FFFFFF" font-weight="700">CURRENT DEVELOPMENT</text>
  <text x="48" y="64" font-family="IBM Plex Mono,Consolas,monospace" font-size="13" fill="#22D3EE">Progress values represent project or learning completion, not competency ratings.</text>
  <text x="48" y="90" font-family="IBM Plex Mono,Consolas,monospace" font-size="16" fill="#CBD5E1">GitHub Portfolio Foundation</text><text x="1200" y="90" text-anchor="end" font-family="IBM Plex Mono,Consolas,monospace" font-size="16" fill="#22D3EE">75%</text><rect x="48" y="100" width="1152" height="14" rx="7" fill="#1E293B"/><rect x="48" y="100" width="825" height="14" rx="7" fill="#2563EB"/>
  <text x="48" y="138" font-family="IBM Plex Mono,Consolas,monospace" font-size="16" fill="#CBD5E1">Enterprise Cybersecurity Lab Docs</text><text x="1200" y="138" text-anchor="end" font-family="IBM Plex Mono,Consolas,monospace" font-size="16" fill="#22D3EE">80%</text><rect x="48" y="148" width="1152" height="14" rx="7" fill="#1E293B"/><rect x="48" y="148" width="880" height="14" rx="7" fill="#2563EB"/>
  <text x="48" y="186" font-family="IBM Plex Mono,Consolas,monospace" font-size="16" fill="#CBD5E1">Crow Ecosystem Documentation</text><text x="1200" y="186" text-anchor="end" font-family="IBM Plex Mono,Consolas,monospace" font-size="16" fill="#22D3EE">70%</text><rect x="48" y="196" width="1152" height="14" rx="7" fill="#1E293B"/><rect x="48" y="196" width="770" height="14" rx="7" fill="#2563EB"/>
  <text x="48" y="234" font-family="IBM Plex Mono,Consolas,monospace" font-size="16" fill="#CBD5E1">Drone Security Documentation</text><text x="1200" y="234" text-anchor="end" font-family="IBM Plex Mono,Consolas,monospace" font-size="16" fill="#22D3EE">75%</text><rect x="48" y="244" width="1152" height="14" rx="7" fill="#1E293B"/><rect x="48" y="244" width="825" height="14" rx="7" fill="#2563EB"/>
  <text x="48" y="282" font-family="IBM Plex Mono,Consolas,monospace" font-size="16" fill="#CBD5E1">CompTIA Security+ Learning Path</text><text x="1200" y="282" text-anchor="end" font-family="IBM Plex Mono,Consolas,monospace" font-size="16" fill="#22D3EE">30%</text><rect x="48" y="292" width="1152" height="14" rx="7" fill="#1E293B"/><rect x="48" y="292" width="330" height="14" rx="7" fill="#F59E0B"/>
  <text x="48" y="330" font-family="IBM Plex Mono,Consolas,monospace" font-size="16" fill="#CBD5E1">PMP Learning Path</text><text x="1200" y="330" text-anchor="end" font-family="IBM Plex Mono,Consolas,monospace" font-size="16" fill="#22D3EE">20%</text><rect x="48" y="340" width="1152" height="14" rx="7" fill="#1E293B"/><rect x="48" y="340" width="220" height="14" rx="7" fill="#F59E0B"/>
  <text x="48" y="360" font-family="IBM Plex Mono,Consolas,monospace" font-size="12" fill="#64748B">Last verified: 2026-07-15</text>
</svg>
