<?xml version="1.0" encoding="UTF-8"?>
<svg xmlns="http://www.w3.org/2000/svg" viewBox="0 0 1100 440" role="img" aria-labelledby="title desc">
  <title id="title">Portfolio telemetry chart</title>
  <desc id="desc">Progress values represent project or learning completion, not competency ratings. Updated 2026-07-15.</desc>
  <rect width="1100" height="440" rx="16" fill="#020617" stroke="#1E293B"/>
  <text x="40" y="36" font-family="IBM Plex Mono,Consolas,monospace" font-size="18" font-weight="700" fill="#FFFFFF">PORTFOLIO TELEMETRY</text>
  <text x="40" y="56" font-family="IBM Plex Mono,Consolas,monospace" font-size="12" fill="#22D3EE">Progress values represent project or learning completion, not competency ratings.</text>
  <text x="40" y="70" font-family="IBM Plex Mono,Consolas,monospace" font-size="14" fill="#CBD5E1">GitHub Portfolio Foundation</text><text x="1040" y="70" text-anchor="end" font-family="IBM Plex Mono,Consolas,monospace" font-size="14" fill="#22D3EE">75%</text><rect x="40" y="78" width="1000" height="10" rx="5" fill="#1E293B"/><rect x="40" y="78" width="735" height="10" rx="5" fill="#2563EB"/>
  <text x="40" y="106" font-family="IBM Plex Mono,Consolas,monospace" font-size="14" fill="#CBD5E1">Enterprise Cybersecurity Lab Docs</text><text x="1040" y="106" text-anchor="end" font-family="IBM Plex Mono,Consolas,monospace" font-size="14" fill="#22D3EE">80%</text><rect x="40" y="114" width="1000" height="10" rx="5" fill="#1E293B"/><rect x="40" y="114" width="784" height="10" rx="5" fill="#2563EB"/>
  <text x="40" y="142" font-family="IBM Plex Mono,Consolas,monospace" font-size="14" fill="#CBD5E1">CompTIA Security+ Learning Path</text><text x="1040" y="142" text-anchor="end" font-family="IBM Plex Mono,Consolas,monospace" font-size="14" fill="#22D3EE">30%</text><rect x="40" y="150" width="1000" height="10" rx="5" fill="#1E293B"/><rect x="40" y="150" width="294" height="10" rx="5" fill="#F59E0B"/>
  <text x="40" y="178" font-family="IBM Plex Mono,Consolas,monospace" font-size="14" fill="#CBD5E1">PMP Learning Path</text><text x="1040" y="178" text-anchor="end" font-family="IBM Plex Mono,Consolas,monospace" font-size="14" fill="#22D3EE">20%</text><rect x="40" y="186" width="1000" height="10" rx="5" fill="#1E293B"/><rect x="40" y="186" width="196" height="10" rx="5" fill="#F59E0B"/>
  <text x="40" y="214" font-family="IBM Plex Mono,Consolas,monospace" font-size="14" fill="#CBD5E1">Crow Ecosystem Documentation</text><text x="1040" y="214" text-anchor="end" font-family="IBM Plex Mono,Consolas,monospace" font-size="14" fill="#22D3EE">70%</text><rect x="40" y="222" width="1000" height="10" rx="5" fill="#1E293B"/><rect x="40" y="222" width="686" height="10" rx="5" fill="#2563EB"/>
  <text x="40" y="250" font-family="IBM Plex Mono,Consolas,monospace" font-size="14" fill="#CBD5E1">Python Portfolio Program</text><text x="1040" y="250" text-anchor="end" font-family="IBM Plex Mono,Consolas,monospace" font-size="14" fill="#22D3EE">55%</text><rect x="40" y="258" width="1000" height="10" rx="5" fill="#1E293B"/><rect x="40" y="258" width="539" height="10" rx="5" fill="#2563EB"/>
  <text x="40" y="286" font-family="IBM Plex Mono,Consolas,monospace" font-size="14" fill="#CBD5E1">Java Portfolio Program</text><text x="1040" y="286" text-anchor="end" font-family="IBM Plex Mono,Consolas,monospace" font-size="14" fill="#22D3EE">10%</text><rect x="40" y="294" width="1000" height="10" rx="5" fill="#1E293B"/><rect x="40" y="294" width="98" height="10" rx="5" fill="#2563EB"/>
  <text x="40" y="322" font-family="IBM Plex Mono,Consolas,monospace" font-size="14" fill="#CBD5E1">Drone Security Documentation</text><text x="1040" y="322" text-anchor="end" font-family="IBM Plex Mono,Consolas,monospace" font-size="14" fill="#22D3EE">75%</text><rect x="40" y="330" width="1000" height="10" rx="5" fill="#1E293B"/><rect x="40" y="330" width="735" height="10" rx="5" fill="#2563EB"/>
  <text x="40" y="358" font-family="IBM Plex Mono,Consolas,monospace" font-size="14" fill="#CBD5E1">SecureSkies Digital Twin</text><text x="1040" y="358" text-anchor="end" font-family="IBM Plex Mono,Consolas,monospace" font-size="14" fill="#22D3EE">0%</text><rect x="40" y="366" width="1000" height="10" rx="5" fill="#1E293B"/><rect x="40" y="366" width="0" height="10" rx="5" fill="#2563EB"/>
  <text x="40" y="394" font-family="IBM Plex Mono,Consolas,monospace" font-size="14" fill="#CBD5E1">Robotics Security Documentation</text><text x="1040" y="394" text-anchor="end" font-family="IBM Plex Mono,Consolas,monospace" font-size="14" fill="#22D3EE">20%</text><rect x="40" y="402" width="1000" height="10" rx="5" fill="#1E293B"/><rect x="40" y="402" width="196" height="10" rx="5" fill="#2563EB"/>
  <text x="40" y="422" font-family="IBM Plex Mono,Consolas,monospace" font-size="12" fill="#475569">Last verified update: 2026-07-15</text>
</svg>
