<?xml version="1.0" encoding="UTF-8"?>
<svg xmlns="http://www.w3.org/2000/svg" viewBox="0 0 1120 180" role="img" aria-labelledby="title desc">
  <title id="title">Project evidence strip</title>
  <desc id="desc">Evidence types present across the public portfolio: tests, CI, privacy docs, architecture, interview notes, defensive tools.</desc>
  <rect width="1120" height="180" rx="14" fill="#020617" stroke="#1E293B"/>
  <text x="28" y="36" font-family="IBM Plex Mono,Consolas,monospace" font-size="14" fill="#22D3EE">PROJECT EVIDENCE</text>
  <g font-family="IBM Plex Mono,Consolas,monospace" font-size="13" fill="#CBD5E1">
    <rect x="28" y="58" width="250" height="44" rx="8" fill="#0F172A" stroke="#2563EB"/>
    <text x="44" y="85">Tested Python utilities</text>
    <rect x="294" y="58" width="250" height="44" rx="8" fill="#0F172A" stroke="#2563EB"/>
    <text x="310" y="85">Java and Python CI</text>
    <rect x="560" y="58" width="250" height="44" rx="8" fill="#0F172A" stroke="#2563EB"/>
    <text x="576" y="85">Security and privacy validation</text>
    <rect x="826" y="58" width="266" height="44" rx="8" fill="#0F172A" stroke="#2563EB"/>
    <text x="842" y="85">Traceable project documentation</text>
    <rect x="28" y="118" width="250" height="44" rx="8" fill="#0F172A" stroke="#22D3EE"/>
    <text x="44" y="145">Architecture diagrams</text>
    <rect x="294" y="118" width="250" height="44" rx="8" fill="#0F172A" stroke="#22D3EE"/>
    <text x="310" y="145">Interview walkthroughs</text>
    <rect x="560" y="118" width="250" height="44" rx="8" fill="#0F172A" stroke="#22D3EE"/>
    <text x="576" y="145">Defensive security tooling</text>
    <rect x="826" y="118" width="266" height="44" rx="8" fill="#0F172A" stroke="#22D3EE"/>
    <text x="842" y="145">Sanitized evidence framework</text>
  </g>
</svg>
