<?xml version="1.0" encoding="UTF-8"?>
<svg xmlns="http://www.w3.org/2000/svg" viewBox="0 0 720 200" role="img" aria-labelledby="title desc">
  <title id="title">Learning and portfolio progress</title>
  <desc id="desc">Project and learning completion bars only. Not skill ratings.</desc>
  <style>.l{font-family:IBM Plex Mono,Consolas,monospace;font-size:12px;fill:#CBD5E1}.p{fill:#22D3EE}.t{fill:#1E293B}.b{fill:#2563EB}.a{fill:#F59E0B}</style>
  <rect width="720" height="200" rx="12" fill="#020617" stroke="#1E293B"/>
  <text class="l" x="24" y="28">Learning and portfolio completion</text>
  <text class="l" x="24" y="58">GitHub Portfolio Foundation</text><text class="p" x="660" y="58">75%</text>
  <rect class="t" x="24" y="66" width="672" height="8" rx="4"/><rect class="b" x="24" y="66" width="504" height="8" rx="4"/>
  <text class="l" x="24" y="98">Enterprise Cybersecurity Lab Docs</text><text class="p" x="660" y="98">80%</text>
  <rect class="t" x="24" y="106" width="672" height="8" rx="4"/><rect class="b" x="24" y="106" width="538" height="8" rx="4"/>
  <text class="l" x="24" y="138">CompTIA Security+ Learning Path</text><text class="p" x="660" y="138">30%</text>
  <rect class="t" x="24" y="146" width="672" height="8" rx="4"/><rect class="a" x="24" y="146" width="202" height="8" rx="4"/>
  <text class="l" x="24" y="178">PMP Learning Path</text><text class="p" x="660" y="178">20%</text>
  <rect class="t" x="24" y="186" width="672" height="8" rx="4"/><rect class="a" x="24" y="186" width="134" height="8" rx="4"/>
</svg>
