<?xml version="1.0" encoding="UTF-8"?>
<svg xmlns="http://www.w3.org/2000/svg" viewBox="0 0 720 240" role="img" aria-labelledby="title desc">
  <title id="title">Project program progress</title>
  <desc id="desc">Progress for drone docs, digital twin, Python, security tools, Crow docs.</desc>
  <style>.l{font-family:IBM Plex Mono,Consolas,monospace;font-size:12px;fill:#CBD5E1}.p{fill:#22D3EE}.t{fill:#1E293B}.b{fill:#2563EB}</style>
  <rect width="720" height="240" rx="12" fill="#020617" stroke="#1E293B"/>
  <text class="l" x="24" y="28">Project completion (not skill ratings)</text>
  <text class="l" x="24" y="58">Drone Security Documentation</text><text class="p" x="660" y="58">75%</text>
  <rect class="t" x="24" y="66" width="672" height="8" rx="4"/><rect class="b" x="24" y="66" width="504" height="8" rx="4"/>
  <text class="l" x="24" y="98">SecureSkies Digital Twin</text><text class="p" x="660" y="98">0%</text>
  <rect class="t" x="24" y="106" width="672" height="8" rx="4"/>
  <text class="l" x="24" y="138">Python Portfolio Program</text><text class="p" x="660" y="138">55%</text>
  <rect class="t" x="24" y="146" width="672" height="8" rx="4"/><rect class="b" x="24" y="146" width="370" height="8" rx="4"/>
  <text class="l" x="24" y="178">Security Toolset</text><text class="p" x="660" y="178">60%</text>
  <rect class="t" x="24" y="186" width="672" height="8" rx="4"/><rect class="b" x="24" y="186" width="403" height="8" rx="4"/>
  <text class="l" x="24" y="218">Crow Ecosystem Documentation</text><text class="p" x="660" y="218">70%</text>
  <rect class="t" x="24" y="226" width="672" height="8" rx="4"/><rect class="b" x="24" y="226" width="470" height="8" rx="4"/>
</svg>
